<svg xmlns="http://www.w3.org/2000/svg" xmlns:xlink="http://www.w3.org/1999/xlink" x="0px" y="0px"
	 viewBox="394 366.3 1399.2 61.7" style="enable-background:new 394 366.3 1399.2 61.7;" xml:space="preserve">
<style type="text/css">
	.st0{fill:#FFC65A;}
</style>
<path class="st0" d="M1793.1,373.6v-7.3H394v7.3h28.7l-17,30.2l-11.7-2.3v6.9l63.4,12.2H394v7.3h486.1l0.2,0.5l1.4-0.5h911.5v-7.3
	h-48.8l3.7-21.1l45.1,8.7v-6.9l-43.9-8.5l3.4-19.3L1793.1,373.6L1793.1,373.6z M1564.4,373.6l-64.7,14.8l-76.9-14.8H1564.4z
	 M1293.9,373.6h93.2l96.3,18.5l-124.7,28.5h-10.9l-56.4-38.9L1293.9,373.6z M1286.4,373.6l-14.3,47h-60.3l-49.2-47
	C1162.6,373.6,1286.4,373.6,1286.4,373.6z M973,373.6h30l-33.3,12.9L973,373.6z M965.7,373.6l-4,16l-79.9,31h-0.3l-48.5-47H965.7z
	 M548.7,373.6l73.1,14.3l-41.4,32.7h-67.8l-49.3-47C463.3,373.6,548.7,373.6,548.7,373.6z M493.1,420.6l-80.4-15.5l17.8-31.5h23
	l49.3,47H493.1z M591.3,420.6l39.3-31l157.9,31H591.3z M823.6,420.6l-239.8-47h239.5l48.6,47H823.6z M959.7,397.7l-5.7,23h-53.5
	L959.7,397.7z M967.6,394.6l54.1-21h43.4l-44.8,47H961L967.6,394.6z M1074.4,373.6h78.5l4.6,4.4l-86.7,42.6h-41.2L1074.4,373.6z
	 M1086.1,420.6l76.6-37.6l39.4,37.6H1086.1z M1279.2,420.6l10.1-32.2l46.6,32.2H1279.2z M1389,420.6l107.7-24.6l14.8,24.6H1389z
	 M1519.3,420.6l-15.7-26.2l91.1-20.8h74.9l43.1,47H1519.3z M1737.5,420.6h-15.6l-43.1-47h66.9L1737.5,420.6z"/>
</svg>
