<?xml version="1.0" encoding="utf-8"?>
<!-- Generator: Adobe Illustrator 19.0.0, SVG Export Plug-In . SVG Version: 6.00 Build 0)  -->
<svg version="1.2" baseProfile="tiny" id="Layer_1" xmlns="http://www.w3.org/2000/svg" xmlns:xlink="http://www.w3.org/1999/xlink"
	 x="0px" y="0px" viewBox="-110 173 390 447" xml:space="preserve">
<g>
	<image width="386" height="444" xlink:href="DDDAAD9F29716459.png"  transform="matrix(1 0 0 1 -109 175)">
	</image>
	<g>
		
			<rect x="-107.5" y="272.2" transform="matrix(-0.9917 0.1288 -0.1288 -0.9917 -113.9708 558.5835)" fill="#FDBA52" width="64.9" height="6.8"/>
		
			<rect x="-102.1" y="461.6" transform="matrix(-0.7207 -0.6933 0.6933 -0.7207 -464.9996 742.7144)" fill="#FDBA52" width="38.5" height="6.8"/>
		<polygon fill="#FDBA52" points="-7.5,584.1 27,628.4 21.5,636 -13,591.7 		"/>
		
			<rect x="-81" y="490.6" transform="matrix(-0.272 -0.9623 0.9623 -0.272 -467.7788 633.8799)" fill="#FDBA52" width="173.8" height="6.5"/>
		<polygon fill="#FDBA52" points="294.6,261.1 -119.7,465.3 -123,458.8 291.4,254.6 		"/>
		<polygon fill="#FDBA52" points="-117.2,406 -48.3,277.8 -47.6,292.3 -110.5,409.4 		"/>
		<polygon fill="#FDBA52" points="-60.4,429.1 11.3,293.6 15.5,300.1 -54.5,432.3 		"/>
		<polygon fill="#FDBA52" points="16.4,540.5 124.2,407.7 126.8,415.2 21.7,544.7 		"/>
		<polygon fill="#FDBA52" points="137.8,428.6 156.6,322.6 163.8,320.2 144.5,429.8 		"/>
		<polygon fill="#FDBA52" points="-55.8,433 -109.6,640.6 -117.2,638.8 -63.8,430.9 		"/>
		<polygon fill="#FDBA52" points="-21.1,195.4 -84.7,446.8 -91.3,445.2 -27.9,193.6 		"/>
		<polygon fill="#FDBA52" points="-107,608.5 298.9,501 300.7,508 -105.1,615.4 		"/>
		<polygon fill="#FDBA52" points="190.1,585.5 28.3,622.4 5.9,619.8 188.4,578.4 		"/>
		<polygon fill="#FDBA52" points="281.8,297.2 178.2,637.9 171,635.8 279.9,277.8 		"/>
		<polygon fill="#FDBA52" points="-100.9,175.7 291.8,579.2 286.8,584.1 -105.9,180.5 		"/>
		<polygon fill="#FDBA52" points="-114,171.1 306.3,253.4 304.9,260.9 -115.4,178.6 		"/>
		<polygon fill="#FDBA52" points="249.4,165.4 -17.3,268.8 -20,261.6 233.9,163.1 		"/>
		<polygon fill="#FDBA52" points="107.2,349.1 286.3,160.1 291.6,165.2 127.7,338 		"/>
		<polygon fill="#FDBA52" points="255.7,380.6 298.5,408.3 292.1,417 249.4,389.2 		"/>
		<polygon fill="#FDBA52" points="-123,292.5 -73.8,208.8 -66.2,213.3 -115.4,297.1 		"/>
	</g>
</g>
</svg>
